<svg width="105" height="26" viewBox="0 0 105 26" fill="none" xmlns="http://www.w3.org/2000/svg">
<path d="M0.858008 14.35C0.858008 12.25 1.27801 10.38 2.11801 8.74C2.97801 7.1 4.19801 5.83 5.77801 4.93C7.35801 4.01 9.21801 3.55 11.358 3.55C13.198 3.55 14.838 3.9 16.278 4.6C17.738 5.28 18.918 6.25 19.818 7.51C20.738 8.77 21.348 10.24 21.648 11.92H14.628C14.308 11.22 13.848 10.68 13.248 10.3C12.668 9.9 11.998 9.7 11.238 9.7C10.118 9.7 9.22801 10.12 8.56801 10.96C7.92801 11.8 7.60801 12.93 7.60801 14.35C7.60801 15.77 7.92801 16.9 8.56801 17.74C9.22801 18.58 10.118 19 11.238 19C11.998 19 12.668 18.81 13.248 18.43C13.848 18.03 14.308 17.48 14.628 16.78H21.648C21.348 18.46 20.738 19.93 19.818 21.19C18.918 22.45 17.738 23.43 16.278 24.13C14.838 24.81 13.198 25.15 11.358 25.15C9.21801 25.15 7.35801 24.7 5.77801 23.8C4.19801 22.88 2.97801 21.6 2.11801 19.96C1.27801 18.32 0.858008 16.45 0.858008 14.35ZM30.7059 11.2C31.3859 10.22 32.2159 9.44 33.1959 8.86C34.1759 8.26 35.1959 7.96 36.2559 7.96V15.07H34.3659C33.1059 15.07 32.1759 15.29 31.5759 15.73C30.9959 16.17 30.7059 16.95 30.7059 18.07V25H24.0459V8.08H30.7059V11.2ZM41.4098 6.73C40.2498 6.73 39.3198 6.42 38.6198 5.8C37.9198 5.18 37.5698 4.4 37.5698 3.46C37.5698 2.5 37.9198 1.71 38.6198 1.09C39.3198 0.449998 40.2498 0.129998 41.4098 0.129998C42.5498 0.129998 43.4698 0.449998 44.1698 1.09C44.8698 1.71 45.2198 2.5 45.2198 3.46C45.2198 4.4 44.8698 5.18 44.1698 5.8C43.4698 6.42 42.5498 6.73 41.4098 6.73ZM44.7098 8.08V25H38.0498V8.08H44.7098ZM47.8078 16.84C48.1078 15.16 48.6978 13.69 49.5778 12.43C50.4778 11.17 51.5878 10.2 52.9078 9.52C54.2278 8.84 55.6478 8.5 57.1678 8.5C58.8678 8.5 60.2378 8.92 61.2778 9.76C62.3378 10.6 62.9978 11.67 63.2578 12.97L64.0078 8.71H65.3578L62.4478 25H61.1278L61.8778 20.71C61.1778 22.03 60.1478 23.12 58.7878 23.98C57.4278 24.82 55.8878 25.24 54.1678 25.24C52.1878 25.24 50.5978 24.66 49.3978 23.5C48.2178 22.32 47.6278 20.73 47.6278 18.73C47.6278 18.13 47.6878 17.5 47.8078 16.84ZM62.5678 16.84C62.6678 16.24 62.7178 15.71 62.7178 15.25C62.7178 13.55 62.2078 12.2 61.1878 11.2C60.1678 10.18 58.8178 9.67 57.1378 9.67C55.8178 9.67 54.5978 9.96 53.4778 10.54C52.3778 11.1 51.4478 11.92 50.6878 13C49.9478 14.08 49.4478 15.36 49.1878 16.84C49.0878 17.5 49.0378 18.06 49.0378 18.52C49.0378 20.26 49.5278 21.62 50.5078 22.6C51.5078 23.56 52.8678 24.04 54.5878 24.04C55.8478 24.04 57.0378 23.75 58.1578 23.17C59.2978 22.57 60.2478 21.73 61.0078 20.65C61.7878 19.55 62.3078 18.28 62.5678 16.84ZM71.0233 12.22C71.6633 10.98 72.5433 10.03 73.6633 9.37C74.8033 8.71 76.1533 8.38 77.7133 8.38L77.4433 9.79H77.0233C75.4233 9.79 74.0133 10.25 72.7933 11.17C71.5733 12.07 70.7833 13.55 70.4233 15.61L68.7433 25H67.3933L70.3033 8.71H71.6533L71.0233 12.22ZM80.6716 20.65C80.5916 21.05 80.5516 21.45 80.5516 21.85C80.5516 22.57 80.7516 23.08 81.1516 23.38C81.5516 23.66 82.2116 23.8 83.1316 23.8H84.9316L84.7216 25H82.6816C81.4816 25 80.5916 24.77 80.0116 24.31C79.4516 23.85 79.1716 23.09 79.1716 22.03C79.1716 21.57 79.2116 21.11 79.2916 20.65L81.2116 9.88H78.7516L78.9616 8.71H81.4216L82.1416 4.57H83.5216L82.8016 8.71H87.6016L87.3916 9.88H82.5916L80.6716 20.65ZM98.272 8.5C99.652 8.5 100.822 8.77 101.782 9.31C102.762 9.83 103.492 10.54 103.972 11.44C104.472 12.32 104.722 13.31 104.722 14.41C104.722 14.89 104.682 15.33 104.602 15.73C104.482 16.45 104.362 16.99 104.242 17.35H90.172C90.092 17.99 90.052 18.45 90.052 18.73C90.052 20.45 90.572 21.77 91.612 22.69C92.652 23.61 93.962 24.07 95.542 24.07C97.122 24.07 98.522 23.68 99.742 22.9C100.982 22.1 101.862 21.02 102.382 19.66H103.792C103.152 21.32 102.082 22.67 100.582 23.71C99.102 24.73 97.352 25.24 95.332 25.24C93.332 25.24 91.722 24.66 90.502 23.5C89.302 22.34 88.702 20.76 88.702 18.76C88.702 18.14 88.762 17.5 88.882 16.84C89.182 15.14 89.782 13.66 90.682 12.4C91.582 11.14 92.682 10.18 93.982 9.52C95.302 8.84 96.732 8.5 98.272 8.5ZM103.162 16.3C103.302 15.72 103.372 15.13 103.372 14.53C103.372 12.95 102.862 11.74 101.842 10.9C100.842 10.06 99.572 9.64 98.032 9.64C96.892 9.64 95.792 9.89 94.732 10.39C93.672 10.89 92.752 11.64 91.972 12.64C91.192 13.64 90.652 14.86 90.352 16.3H103.162Z" fill="black"/>
</svg>
